<?xml version="1.0" encoding="utf-8"?>
<!-- Generator: Adobe Illustrator 16.0.0, SVG Export Plug-In . SVG Version: 6.00 Build 0)  -->
<!DOCTYPE svg PUBLIC "-//W3C//DTD SVG 1.1//EN" "http://www.w3.org/Graphics/SVG/1.1/DTD/svg11.dtd">
<svg version="1.1" id="Layer_1" xmlns="http://www.w3.org/2000/svg" xmlns:xlink="http://www.w3.org/1999/xlink" x="0px" y="0px"
	 width="100px" height="46.75px" viewBox="0 13.25 100 46.75" enable-background="new 0 13.25 100 46.75" xml:space="preserve">
<g>
	<path fill="#3D484E" d="M9.75,35.453c0,0.104,0,0.209,0,0.312c0,2.479-0.012,4.957,0.006,7.433
		c0.006,0.964-0.746,1.491-1.698,1.235c-0.439-0.121-0.707-0.426-0.781-0.879c-0.03-0.171-0.044-0.349-0.044-0.524
		c-0.003-4.095,0.012-8.19-0.009-12.287c-0.009-1.302,1.064-1.768,2.151-1.394c0.416,0.145,0.607,0.521,0.775,0.896
		c0.613,1.376,1.22,2.75,1.83,4.125c0.26,0.584,0.516,1.164,0.775,1.748c0.035,0.079,0.08,0.159,0.145,0.289
		c0.271-0.613,0.521-1.175,0.769-1.733c0.654-1.477,1.314-2.949,1.96-4.432c0.345-0.79,0.793-1.167,1.948-0.955
		c0.569,0.106,0.955,0.625,0.958,1.203c0,4.273,0,8.544,0,12.814c-0.003,0.694-0.466,1.163-1.159,1.188
		c-0.792,0.023-1.291-0.395-1.335-1.123c-0.006-0.111-0.006-0.221-0.006-0.333c0-2.423,0-4.845,0-7.269c0-0.101,0-0.199,0-0.301
		c-0.018-0.009-0.038-0.018-0.056-0.025c-0.041,0.082-0.085,0.162-0.121,0.244c-0.554,1.271-1.1,2.541-1.656,3.809
		c-0.33,0.754-0.89,1.043-1.671,0.878c-0.478-0.101-0.757-0.429-0.943-0.856c-0.545-1.263-1.094-2.523-1.642-3.781
		c-0.041-0.099-0.088-0.195-0.135-0.289C9.791,35.447,9.771,35.45,9.75,35.453z"/>
	<path fill="#3D484E" d="M52.49,35.441c-0.184,0.418-0.368,0.84-0.551,1.262c-0.407,0.938-0.812,1.88-1.225,2.816
		c-0.324,0.73-0.887,1.018-1.659,0.853c-0.48-0.104-0.758-0.431-0.943-0.86c-0.548-1.271-1.102-2.541-1.653-3.809
		c-0.039-0.092-0.083-0.18-0.171-0.266c-0.003,0.095-0.012,0.188-0.012,0.283c0,2.496-0.009,4.995,0.003,7.491
		c0.006,0.92-0.702,1.474-1.68,1.228c-0.542-0.14-0.825-0.566-0.84-1.196c-0.009-0.407-0.003-0.813-0.003-1.222
		c0-3.764,0.018-7.526-0.009-11.287c-0.006-1.344,1.141-1.759,2.187-1.37c0.348,0.126,0.537,0.442,0.684,0.769
		c0.533,1.194,1.067,2.393,1.6,3.59c0.36,0.811,0.716,1.62,1.076,2.432c0.029,0.068,0.064,0.13,0.121,0.244
		c0.062-0.121,0.106-0.203,0.145-0.289c0.867-1.957,1.739-3.914,2.597-5.875c0.371-0.846,0.867-1.114,1.875-0.961
		c0.615,0.094,1.021,0.604,1.027,1.229c0.006,0.904,0,1.812,0,2.717c0,3.34-0.012,6.676,0.006,10.016
		c0.007,1.186-1.146,1.479-1.873,1.125c-0.448-0.217-0.629-0.601-0.629-1.084c0-2.062,0-4.123,0-6.187c0-0.545,0-1.088,0-1.633
		C52.541,35.45,52.516,35.447,52.49,35.441z"/>
	<path fill="#3D484E" d="M66.477,36.886c0,1.11,0,2.222,0,3.33c0,2.438-1.84,4.253-4.285,4.282c-1.459,0.018-2.684-0.436-3.641-1.55
		c-0.701-0.819-0.973-1.789-0.973-2.849c-0.003-2.146-0.01-4.291,0-6.437c0.009-2.243,1.373-3.94,3.554-4.344
		c2.411-0.442,4.498,0.802,5.136,2.876c0.129,0.416,0.188,0.869,0.199,1.306C66.493,34.631,66.477,35.76,66.477,36.886z
		 M63.959,36.877c0-1.104,0-2.202,0-3.301c-0.003-1.01-0.593-1.688-1.598-1.831c-1.256-0.187-2.258,0.59-2.264,1.776
		c-0.013,2.237-0.01,4.472,0,6.709c0.006,1.084,0.815,1.824,1.95,1.817c1.144-0.006,1.907-0.741,1.91-1.848
		C63.959,39.093,63.959,37.984,63.959,36.877z"/>
	<path fill="#3D484E" d="M29.996,44.492c-0.592-0.003-0.952-0.26-1.132-0.828c-0.248-0.793-0.492-1.586-0.725-2.381
		c-0.059-0.207-0.142-0.299-0.38-0.295c-1.247,0.015-2.493,0.015-3.743,0.003c-0.233-0.003-0.318,0.082-0.38,0.292
		c-0.23,0.795-0.472,1.591-0.725,2.381c-0.165,0.516-0.537,0.802-1.029,0.825c-0.569,0.028-1.049-0.13-1.318-0.673
		c-0.145-0.291-0.147-0.604-0.047-0.916c1.324-4.186,2.647-8.37,3.971-12.556c0.298-0.939,0.867-1.264,1.825-1.063
		c0.41,0.088,0.681,0.348,0.822,0.713c0.224,0.586,0.416,1.186,0.604,1.779c1.144,3.635,2.284,7.269,3.425,10.901
		c0.05,0.156,0.103,0.318,0.127,0.48C31.387,43.927,30.833,44.492,29.996,44.492z M27.258,38.484
		c-0.451-1.508-0.896-2.996-1.341-4.487c-0.021,0-0.042,0-0.059,0.003c-0.445,1.488-0.89,2.977-1.341,4.484
		C25.439,38.484,26.33,38.484,27.258,38.484z"/>
	<path fill="#3D484E" d="M37.052,44.516c-1.185,0.012-2.249-0.309-3.145-1.104c-0.799-0.708-1.211-1.615-1.317-2.668
		c-0.024-0.253-0.042-0.52-0.009-0.77c0.089-0.688,0.607-1.078,1.333-1.037c0.669,0.037,1.126,0.51,1.155,1.185
		c0.009,0.185,0.015,0.369,0.05,0.549c0.135,0.695,0.557,1.136,1.241,1.304c0.521,0.129,1.049,0.104,1.562-0.051
		c0.955-0.292,1.421-1.33,0.955-2.229c-0.18-0.348-0.451-0.692-0.767-0.924c-0.648-0.472-1.355-0.859-2.034-1.291
		c-0.645-0.412-1.303-0.808-1.918-1.261c-2.151-1.589-2.028-5.272,0.781-6.508c1.789-0.784,3.522-0.654,5.119,0.483
		c0.87,0.62,1.323,1.503,1.288,2.597c-0.023,0.657-0.516,1.123-1.19,1.142c-0.731,0.018-1.247-0.385-1.282-1.06
		c-0.024-0.489-0.28-0.769-0.69-0.937c-0.666-0.271-1.347-0.28-2.034-0.08c-1.067,0.312-1.267,1.824-0.439,2.375
		c0.575,0.387,1.164,0.752,1.763,1.097c0.984,0.569,1.975,1.132,2.779,1.954c1.374,1.406,1.707,3.434,0.816,5.081
		c-0.643,1.194-1.695,1.817-2.998,2.055C37.736,44.479,37.394,44.482,37.052,44.516z"/>
	<path fill="#3D484E" d="M72.783,38.77c0.124-0.52,0.246-1.035,0.367-1.551c0.556-2.353,1.105-4.703,1.666-7.056
		c0.133-0.557,0.504-0.864,1.072-0.923c0.502-0.05,1.082,0.236,1.25,0.699c0.098,0.271,0.133,0.607,0.067,0.884
		c-0.99,4.182-2.004,8.36-3.013,12.536c-0.248,1.021-1.361,1.482-2.27,0.947c-0.32-0.191-0.511-0.479-0.596-0.834
		c-0.98-4.08-1.967-8.158-2.944-12.24c-0.073-0.318-0.153-0.657-0.12-0.976c0.059-0.601,0.574-0.996,1.227-1.02
		c0.574-0.021,1.055,0.339,1.195,0.914c0.194,0.798,0.377,1.597,0.562,2.398c0.482,2.046,0.964,4.092,1.443,6.141
		c0.006,0.025,0.021,0.05,0.029,0.072C72.745,38.766,72.766,38.766,72.783,38.77z"/>
	<path fill="#3D484E" d="M87.217,41.9c1.393,0,2.73-0.002,4.071,0c0.165,0,0.333,0.013,0.495,0.037
		c0.587,0.09,0.992,0.595,0.992,1.223c0,0.631-0.424,1.135-1.03,1.212c-0.153,0.021-0.312,0.032-0.47,0.032
		c-1.691,0.003-3.385,0.003-5.078,0.003c-0.996,0-1.497-0.507-1.497-1.507c0-4.066-0.003-8.137,0.006-12.205
		c0-0.279,0.047-0.58,0.162-0.83c0.228-0.501,0.819-0.716,1.42-0.581c0.552,0.124,0.899,0.545,0.929,1.126
		c0.004,0.085,0,0.167,0,0.25c0,3.615,0,7.232,0,10.849C87.217,41.628,87.217,41.745,87.217,41.9z"/>
	<path fill="#3D484E" d="M28.699,26.261c0.012,0.289-0.145,0.533-0.43,0.672c-0.837,0.407-1.68,0.802-2.526,1.185
		c-0.413,0.188-0.837,0.006-1.043-0.41c-0.212-0.437-0.085-0.893,0.345-1.108c0.708-0.356,1.427-0.687,2.143-1.026
		c0.101-0.047,0.198-0.097,0.298-0.144C28.092,25.164,28.699,25.559,28.699,26.261z"/>
	<path fill="#3D484E" d="M64.781,26.234c-0.016,0.324-0.162,0.56-0.442,0.695c-0.846,0.407-1.694,0.808-2.553,1.194
		c-0.406,0.186-0.841-0.015-1.031-0.434c-0.203-0.436-0.062-0.893,0.368-1.102c0.818-0.401,1.645-0.793,2.475-1.173
		c0.432-0.2,0.909,0,1.096,0.448C64.738,25.978,64.752,26.11,64.781,26.234z"/>
	<path fill="#FFE400" d="M82.174,38.288c0,0.892-0.722,1.608-1.609,1.608l0,0c-0.89,0-1.607-0.719-1.607-1.608v-7.511
		c0-0.886,0.719-1.607,1.607-1.607l0,0c0.889,0,1.609,0.722,1.609,1.607V38.288z"/>
	<path fill="#FFE400" d="M82.174,43.207c0,0.695-0.562,1.259-1.259,1.259h-0.627c-0.696,0-1.259-0.562-1.259-1.259v-0.516
		c0-0.695,0.562-1.258,1.259-1.258h0.627c0.696,0,1.259,0.562,1.259,1.258V43.207z"/>
</g>
</svg>
